<svg width="248" height="150" viewBox="0 0 248 150" fill="none" xmlns="http://www.w3.org/2000/svg">
<rect width="248" height="150" fill="white"/>
<g clip-path="url(#clip0_571_235)">
<path d="M69.834 124.68C69.834 119.534 74.0265 115.361 79.194 115.361C84.3615 115.361 88.554 119.534 88.554 124.68C88.554 129.826 84.3615 134 79.194 134C74.0265 134 69.834 129.826 69.834 124.68Z" fill="#5F259F"/>
<path d="M83.436 122.233C83.436 121.868 83.1435 121.576 82.7779 121.576H81.5266L78.6504 118.27C78.3823 117.962 77.9598 117.841 77.5698 117.954L76.5704 118.254C76.416 118.302 76.3673 118.489 76.4891 118.602L79.6254 121.576H74.8398C74.7016 121.576 74.5879 121.69 74.5879 121.828V122.363C74.5879 122.727 74.8804 123.019 75.246 123.019H75.9773V125.531C75.9773 127.411 76.9848 128.53 78.6666 128.53C79.1785 128.53 79.6173 128.473 80.121 128.27V129.948C80.121 130.402 80.4948 130.775 80.9498 130.775H81.6729C81.8435 130.775 81.9816 130.637 81.9816 130.467V123.019H83.1841C83.3223 123.019 83.436 122.906 83.436 122.768V122.233ZM80.121 126.714C79.8285 126.844 79.3979 126.917 79.081 126.917C78.2198 126.917 77.8379 126.488 77.8379 125.531V123.019H80.121V126.714Z" fill="white"/>
<path d="M117.244 130.005V126.617C117.244 125.766 116.91 125.385 116.155 125.385C115.838 125.385 115.472 125.426 115.245 125.507V130.467C115.245 130.637 115.107 130.775 114.936 130.775H113.742C113.571 130.775 113.433 130.637 113.433 130.467V124.656C113.433 124.453 113.571 124.275 113.734 124.218C114.505 123.943 115.318 123.781 116.171 123.781C118.056 123.781 119.096 124.786 119.096 126.617V130.467C119.096 130.637 118.958 130.775 118.787 130.775H118.048C117.617 130.775 117.268 130.426 117.268 129.997L117.244 130.005ZM121.972 127.962H121.932V128.441C121.932 129.073 122.338 129.437 123.045 129.437C123.573 129.437 124.069 129.308 124.564 129.032C124.597 129.016 124.645 128.992 124.727 128.992C124.824 128.992 124.905 129.048 124.954 129.105C125.003 129.162 125.133 129.316 125.133 129.316C125.263 129.47 125.344 129.656 125.336 129.859C125.328 130.126 125.182 130.361 124.954 130.483C124.369 130.791 123.719 130.945 122.98 130.945C122.151 130.945 121.444 130.726 120.932 130.313C120.38 129.867 120.087 129.211 120.087 128.408V126.39C120.087 124.761 121.152 123.789 122.939 123.789C124.727 123.789 125.677 124.737 125.677 126.39V127.655C125.677 127.825 125.539 127.962 125.36 127.962H121.964H121.972ZM121.932 126.82H123.93V126.301C123.93 125.653 123.565 125.28 122.931 125.28C122.297 125.28 121.932 125.645 121.932 126.301V126.779V126.82ZM135.305 127.962H135.265V128.441C135.265 129.073 135.671 129.437 136.378 129.437C136.906 129.437 137.402 129.308 137.897 129.032C137.93 129.016 137.979 128.992 138.06 128.992C138.157 128.992 138.239 129.048 138.287 129.105C138.336 129.162 138.466 129.316 138.466 129.316C138.596 129.47 138.677 129.656 138.669 129.859C138.661 130.126 138.515 130.361 138.287 130.483C137.702 130.791 137.052 130.945 136.313 130.945C135.484 130.945 134.777 130.726 134.265 130.313C133.713 129.867 133.42 129.211 133.42 128.408V126.39C133.42 124.761 134.485 123.789 136.272 123.789C138.06 123.789 139.01 124.737 139.01 126.39V127.655C139.01 127.825 138.872 127.962 138.694 127.962H135.297H135.305ZM135.265 126.82H137.264V126.301C137.264 125.653 136.898 125.28 136.264 125.28C135.63 125.28 135.265 125.645 135.265 126.301V126.779V126.82ZM104.447 130.783H105.186C105.357 130.783 105.495 130.645 105.495 130.475V126.609C105.495 124.842 104.544 123.789 102.96 123.789C102.48 123.789 101.969 123.87 101.66 124.008V122.103C101.66 121.674 101.31 121.325 100.88 121.325H100.149C99.978 121.325 99.8398 121.463 99.8398 121.633V130.475C99.8398 130.645 99.978 130.783 100.149 130.783H101.343C101.514 130.783 101.652 130.645 101.652 130.475V125.556C101.904 125.442 102.269 125.377 102.554 125.377C103.317 125.377 103.659 125.758 103.659 126.609V130.005C103.659 130.434 104.008 130.783 104.439 130.783H104.447ZM112.352 126.407V128.351C112.352 129.948 111.239 130.937 109.444 130.937C107.648 130.937 106.519 129.948 106.519 128.351V126.407C106.519 124.786 107.64 123.781 109.444 123.781C111.247 123.781 112.352 124.786 112.352 126.407ZM110.508 126.407C110.508 125.758 110.118 125.385 109.444 125.385C108.769 125.385 108.379 125.758 108.379 126.407V128.351C108.379 128.992 108.753 129.348 109.444 129.348C110.134 129.348 110.508 128.992 110.508 128.351V126.407ZM98.8323 125.515C98.8323 127.201 97.5648 128.335 95.9073 128.335C95.4848 128.335 95.1273 128.279 94.778 128.141V130.475C94.778 130.645 94.6398 130.783 94.4692 130.783H93.2423C93.0717 130.783 92.9336 130.645 92.9336 130.475V122.184C92.9336 121.957 93.0961 121.795 93.2423 121.747C94.0142 121.487 94.8267 121.325 95.6473 121.325C97.5242 121.325 98.8405 122.468 98.8405 124.227V125.515H98.8323ZM96.9555 124.186C96.9555 123.367 96.403 122.946 95.5823 122.946C95.1273 122.946 94.7698 123.092 94.7698 123.092V126.528C95.0623 126.69 95.2655 126.739 95.5905 126.739C96.3948 126.739 96.9473 126.285 96.9473 125.507V124.194L96.9555 124.186ZM132.665 125.515C132.665 127.201 131.397 128.335 129.74 128.335C129.317 128.335 128.96 128.279 128.61 128.141V130.475C128.61 130.645 128.472 130.783 128.302 130.783H127.075C126.904 130.783 126.766 130.645 126.766 130.475V122.184C126.766 121.957 126.929 121.795 127.075 121.747C127.847 121.487 128.659 121.325 129.48 121.325C131.357 121.325 132.673 122.468 132.673 124.227V125.515H132.665ZM130.788 124.186C130.788 123.367 130.235 122.946 129.415 122.946C128.96 122.946 128.602 123.092 128.602 123.092V126.528C128.895 126.69 129.098 126.739 129.423 126.739C130.227 126.739 130.78 126.285 130.78 125.507V124.194L130.788 124.186Z" fill="#5F259F"/>
<path d="M153.449 125.288C153.823 124.445 154.522 124.024 155.546 124.024V125.612C154.985 125.58 154.489 125.71 154.075 126.009C153.661 126.309 153.449 126.812 153.449 127.509V130.937H151.979V124.145H153.449V125.288ZM147.672 121.422C148.574 121.422 149.322 121.722 149.931 122.322C150.532 122.922 150.841 123.667 150.841 124.551C150.841 125.434 150.541 126.171 149.931 126.771C149.322 127.371 148.574 127.679 147.672 127.679H145.722V130.945H144.154V121.422H147.672ZM147.672 126.204C148.136 126.204 148.517 126.05 148.818 125.734C149.119 125.418 149.265 125.021 149.265 124.543C149.265 124.064 149.119 123.667 148.818 123.351C148.517 123.035 148.136 122.881 147.672 122.881H145.722V126.204H147.672Z" fill="#5F259F"/>
<path d="M159.543 131.115C158.543 131.115 157.698 130.775 156.991 130.086C156.293 129.397 155.943 128.554 155.943 127.541C155.943 126.528 156.293 125.685 156.991 124.996C157.69 124.308 158.543 123.967 159.543 123.967C160.542 123.967 161.403 124.308 162.094 124.996C162.793 125.685 163.134 126.528 163.134 127.541C163.134 128.554 162.785 129.397 162.094 130.086C161.403 130.775 160.55 131.115 159.543 131.115ZM158.023 129.081C158.43 129.486 158.933 129.689 159.535 129.689C160.136 129.689 160.64 129.486 161.046 129.081C161.452 128.676 161.655 128.165 161.655 127.549C161.655 126.933 161.452 126.423 161.046 126.017C160.64 125.612 160.136 125.41 159.535 125.41C158.933 125.41 158.43 125.612 158.023 126.017C157.617 126.423 157.414 126.933 157.414 127.549C157.414 128.165 157.617 128.676 158.023 129.081Z" fill="#5F259F"/>
<path d="M169.87 121.431H171.341V130.945H169.87V129.964C169.318 130.734 168.522 131.123 167.49 131.123C166.555 131.123 165.751 130.775 165.093 130.086C164.427 129.389 164.102 128.546 164.102 127.549C164.102 126.552 164.435 125.693 165.093 125.004C165.759 124.316 166.555 123.975 167.49 123.975C168.522 123.975 169.318 124.356 169.87 125.118V121.439V121.431ZM166.173 129.097C166.58 129.51 167.092 129.713 167.709 129.713C168.327 129.713 168.838 129.51 169.245 129.097C169.651 128.684 169.854 128.165 169.854 127.541C169.854 126.917 169.651 126.398 169.245 125.985C168.838 125.572 168.327 125.369 167.709 125.369C167.092 125.369 166.58 125.572 166.173 125.985C165.767 126.398 165.564 126.917 165.564 127.541C165.564 128.165 165.767 128.684 166.173 129.097Z" fill="#5F259F"/>
<path d="M177.645 124.145H179.115V130.937H177.645V130.07C177.198 130.766 176.499 131.115 175.532 131.115C174.752 131.115 174.119 130.864 173.639 130.369C173.16 129.875 172.916 129.186 172.916 128.319V124.145H174.387V128.165C174.387 128.676 174.525 129.065 174.793 129.332C175.061 129.599 175.435 129.737 175.906 129.737C176.426 129.737 176.84 129.575 177.157 129.251C177.474 128.927 177.637 128.441 177.637 127.776V124.137L177.645 124.145Z" fill="#5F259F"/>
<path d="M184.049 131.115C183.025 131.115 182.164 130.775 181.481 130.086C180.799 129.397 180.449 128.554 180.449 127.541C180.449 126.528 180.79 125.677 181.481 124.996C182.164 124.316 183.025 123.967 184.049 123.967C184.715 123.967 185.316 124.129 185.86 124.445C186.405 124.761 186.811 125.191 187.087 125.726L185.82 126.463C185.665 126.139 185.43 125.88 185.121 125.693C184.804 125.507 184.447 125.418 184.04 125.418C183.439 125.418 182.935 125.62 182.537 126.026C182.139 126.431 181.928 126.941 181.928 127.549C181.928 128.157 182.131 128.668 182.537 129.073C182.944 129.478 183.447 129.681 184.04 129.681C184.439 129.681 184.804 129.583 185.121 129.397C185.446 129.21 185.69 128.951 185.852 128.635L187.12 129.356C186.827 129.899 186.413 130.329 185.869 130.645C185.324 130.961 184.723 131.123 184.057 131.123L184.049 131.115Z" fill="#5F259F"/>
<path d="M191.978 125.564H190.288V128.821C190.288 129.105 190.353 129.308 190.475 129.429C190.597 129.551 190.792 129.616 191.044 129.632C191.296 129.648 191.605 129.64 191.978 129.632V130.953C190.849 131.091 190.045 130.993 189.557 130.661C189.07 130.329 188.818 129.721 188.818 128.83V125.572H187.566V124.162H188.818V122.695L190.288 122.257V124.162H191.978V125.572V125.564Z" fill="#5F259F"/>
<path d="M64.1227 130.945L63.4484 129.032H59.394L58.7277 130.945H57.0215L60.4827 121.431H62.3596L65.8046 130.945H64.1146H64.1227ZM59.9059 127.557H62.9284L61.4171 123.262L59.9059 127.557Z" fill="#5F259F"/>
<path d="M196.229 127.484H215.818" stroke="#5F259F" stroke-miterlimit="10"/>
<path d="M33.1836 127.484H52.773" stroke="#5F259F" stroke-miterlimit="10"/>
<path d="M210.211 50.8524C210.211 56.5982 205.539 61.258 199.778 61.258C197.714 61.258 195.789 60.6583 194.172 59.6291C192.856 58.7944 191.743 57.676 190.922 56.3469C189.923 54.7504 189.346 52.8703 189.346 50.8443C189.346 45.0985 194.018 40.4387 199.778 40.4387C205.539 40.4387 210.211 45.0985 210.211 50.8443V50.8524Z" fill="#17C55F"/>
<path d="M63.1245 75.7319C66.5858 75.7319 69.3645 76.8664 71.4527 79.1356C73.5489 81.4047 74.5889 84.4194 74.5889 88.1959V106.681H65.5377V88.982C65.5377 87.4584 65.1639 86.2509 64.4164 85.3676C63.6689 84.4843 62.5964 84.0385 61.1908 84.0385C59.7039 84.0385 58.542 84.541 57.7214 85.5459C56.8927 86.5508 56.4864 87.9366 56.4864 89.7033V106.681H47.4352V88.982C47.4352 87.4584 47.0614 86.2509 46.3139 85.3676C45.5664 84.4843 44.4939 84.0385 43.0883 84.0385C41.6014 84.0385 40.4395 84.541 39.6189 85.5459C38.7902 86.5508 38.3839 87.9366 38.3839 89.7033V106.681H29.3164V76.5747H38.3758V79.3463C40.0252 76.9394 42.7227 75.7319 46.4683 75.7319C49.9702 75.7319 52.6027 77.0609 54.3739 79.7029C56.2264 77.0528 59.1433 75.7319 63.1327 75.7319H63.1245Z" fill="#5F17C5"/>
<path d="M102.733 76.5747H111.784V106.681H102.733V103.853C100.596 106.3 97.598 107.524 93.7386 107.524C89.8792 107.524 86.353 105.992 83.5336 102.921C80.7142 99.8495 79.3086 96.0892 79.3086 91.632C79.3086 87.1748 80.7142 83.4145 83.5336 80.343C86.353 77.2716 89.7573 75.7399 93.7386 75.7399C97.7198 75.7399 100.596 76.9636 102.733 79.4111V76.5828V76.5747ZM90.3505 96.9888C91.683 98.3097 93.4055 98.9743 95.5423 98.9743C97.6792 98.9743 99.4098 98.3097 100.734 96.9888C102.067 95.6597 102.725 93.8768 102.725 91.632C102.725 89.3872 102.059 87.5962 100.734 86.2752C99.4098 84.9542 97.6792 84.2897 95.5423 84.2897C93.4055 84.2897 91.6748 84.9542 90.3505 86.2752C89.018 87.6043 88.3598 89.3872 88.3598 91.632C88.3598 93.8768 89.0261 95.6678 90.3505 96.9888Z" fill="#5F17C5"/>
<path d="M127.483 81.9315C128.044 80.0027 129.181 78.5278 130.896 77.5066C132.602 76.4855 134.487 75.975 136.543 75.975V86.2104C134.324 85.8457 132.261 86.2185 130.351 87.3207C128.434 88.4228 127.483 90.3435 127.483 93.0745V106.681H118.424V76.5747H127.483V81.9315Z" fill="#5F17C5"/>
<path d="M178.297 95.2383C179.345 98.0504 181.758 99.4524 185.544 99.4524C187.998 99.4524 189.932 98.6906 191.337 97.1671L198.585 101.324C195.603 105.458 191.216 107.532 185.422 107.532C180.352 107.532 176.298 106.025 173.259 103.018C170.221 100.012 168.701 96.2108 168.701 91.6401C168.701 87.0694 170.196 83.3253 173.194 80.2863C176.192 77.2554 180.044 75.7399 184.756 75.7399C189.144 75.7399 192.792 77.2554 195.717 80.2863C198.634 83.3172 200.096 87.1018 200.096 91.6401C200.096 92.9286 199.974 94.128 199.731 95.2545H178.297V95.2383ZM178.11 88.4957H191.086C190.2 85.327 188.071 83.7386 184.683 83.7386C181.295 83.7386 178.987 85.327 178.102 88.4957H178.11Z" fill="#5F17C5"/>
<path d="M222.002 85.246H215.786V95.9028C215.786 97.1103 216.265 97.8721 217.232 98.1882C218.199 98.5123 219.792 98.6096 222.002 98.488V106.681C216.249 107.281 212.26 106.73 210.05 105.028C207.832 103.326 206.727 100.279 206.727 95.9028V85.246H201.9V76.5747H206.727V69.6052H215.786V76.5747H222.002V85.246Z" fill="#5F17C5"/>
<path d="M149.819 93.4959L158.879 106.681H169.441L158.448 91.6239L169.742 76.5747H159.48L149.819 89.8572V61.258L140.76 67.3522V106.681H149.819V93.4959Z" fill="#5F17C5"/>
<path d="M37.685 39.1015C37.685 39.7012 38.1969 40.1955 39.2206 40.5764C40.2444 40.9573 41.4875 41.3382 42.9338 41.7191C44.38 42.1 45.8344 42.5943 47.2806 43.194C48.7269 43.7937 49.97 44.7905 50.9938 46.1763C52.0175 47.5621 52.5294 49.2964 52.5294 51.3872C52.5294 54.637 51.3269 57.1006 48.9056 58.7619C46.4925 60.4233 43.5106 61.258 39.9681 61.258C33.6063 61.258 29.2837 58.8673 26.9844 54.094L34.8331 49.6367C35.6375 52.0031 37.3438 53.1863 39.9681 53.1863C42.1375 53.1863 43.2262 52.5623 43.2262 51.3224C43.2262 50.7227 42.7144 50.2202 41.6906 49.815C40.6669 49.4179 39.4238 49.0208 37.9775 48.6399C36.5313 48.2591 35.0769 47.7566 33.6306 47.1326C32.1844 46.5086 30.9412 45.5361 29.9175 44.2151C28.8937 42.8861 28.3819 41.2653 28.3819 39.3365C28.3819 36.2002 29.5194 33.7771 31.7944 32.0509C34.0694 30.3248 36.8725 29.4576 40.2119 29.4576C42.7063 29.4576 44.9813 30.0087 47.0369 31.1109C49.0925 32.213 50.7338 33.8095 51.985 35.9004L44.2581 40.0578C43.2913 38.2911 41.9425 37.4077 40.2119 37.4077C38.4813 37.4077 37.6769 37.9669 37.6769 39.0934L37.685 39.1015Z" fill="#5F17C5"/>
<path d="M114.174 30.3086H123.226V60.4152H114.174V57.5869C112.037 60.0343 109.039 61.258 105.18 61.258C101.321 61.258 97.7944 59.7263 94.975 56.6549C92.1556 53.5835 90.75 49.8232 90.75 45.3659C90.75 40.9087 92.1556 37.1484 94.975 34.077C97.7944 31.0055 101.199 29.4739 105.18 29.4739C109.161 29.4739 112.037 30.6976 114.174 33.145V30.3167V30.3086ZM101.8 50.7227C103.132 52.0437 104.855 52.7082 106.992 52.7082C109.129 52.7082 110.859 52.0437 112.184 50.7227C113.516 49.3937 114.174 47.6108 114.174 45.3659C114.174 43.1211 113.508 41.3301 112.184 40.0092C110.859 38.6882 109.129 38.0237 106.992 38.0237C104.855 38.0237 103.124 38.6882 101.8 40.0092C100.467 41.3382 99.8094 43.1211 99.8094 45.3659C99.8094 47.6108 100.476 49.4018 101.8 50.7227Z" fill="#5F17C5"/>
<path d="M138.93 35.6735C139.491 33.7447 140.629 32.2698 142.343 31.2486C144.049 30.2275 145.934 29.717 147.99 29.717V39.9524C145.772 39.5877 143.708 39.9605 141.799 41.0627C139.881 42.1648 138.93 44.0855 138.93 46.8165V60.4233H129.871V30.3086H138.93V35.6654V35.6735Z" fill="#5F17C5"/>
<path d="M159.389 48.9803C160.437 51.7924 162.85 53.1944 166.636 53.1944C169.09 53.1944 171.024 52.4326 172.429 50.9091L179.677 55.0664C176.695 59.1995 172.307 61.2742 166.514 61.2742C161.444 61.2742 157.39 59.7668 154.351 56.7602C151.312 53.7536 149.793 49.9528 149.793 45.3821C149.793 40.8114 151.288 37.0673 154.286 34.0283C157.284 30.9974 161.135 29.4819 165.848 29.4819C170.235 29.4819 173.884 30.9974 176.809 34.0283C179.725 37.0592 181.188 40.8438 181.188 45.3821C181.188 46.6706 181.066 47.87 180.822 48.9965H159.389V48.9803ZM159.21 42.2377H172.185C171.3 39.069 169.171 37.4806 165.783 37.4806C162.395 37.4806 160.087 39.069 159.202 42.2377H159.21Z" fill="#5F17C5"/>
<path d="M74.7506 29.4657C77.9681 29.4657 80.6575 30.5679 82.8106 32.7803C84.9638 34.9846 86.0444 38.0398 86.0444 41.9298V60.4151H76.985V43.2507C76.985 41.4841 76.4894 40.1307 75.5063 39.1825C74.5231 38.2424 73.2638 37.7643 71.7363 37.7643C70.0056 37.7643 68.6325 38.283 67.6331 39.3284C66.6256 40.3738 66.1219 41.9136 66.1219 43.9639V60.3989H57.0625V21.0861L66.1219 15V33.1369C67.9338 30.6895 70.81 29.4657 74.7506 29.4657Z" fill="#5F17C5"/>
</g>
<defs>
<clipPath id="clip0_571_235">
<rect width="195" height="119" fill="white" transform="translate(27 15)"/>
</clipPath>
</defs>
</svg>
