<svg width="232" height="155" viewBox="0 0 232 155" fill="none" xmlns="http://www.w3.org/2000/svg">
<path d="M154.21 0H0C16.45 21.4 26.24 48.15 26.24 77.21C26.24 106.27 16.45 133.01 0 154.41H154.21C196.94 154.41 231.58 119.85 231.58 77.2C231.58 34.55 196.94 0 154.21 0Z" fill="#6818A4"/>
<path d="M113.17 65.96C113.17 82.12 101.04 90.53 85.66 90.53H74.03V113.81H57.64V41.47H85.64C101.06 41.49 113.17 49.72 113.17 65.96ZM84.67 75.68C91.12 75.68 96.29 72.91 96.29 65.96C96.29 59.01 91.12 56.45 84.67 56.45H74.03V75.68H84.67Z" fill="white"/>
<path d="M151.2 72.2H180.69V106.28C180.69 108.76 179.89 110.64 177.41 111.83C173.64 113.51 168.87 114.81 161.01 114.81C136.88 114.81 120.11 99.04 120.11 77.64C120.11 56.24 136.3 40.49 159.63 40.49C168.66 40.49 175.23 42.28 179.69 44.25V60.41C174.82 57.43 167.86 55.85 161.11 55.85C149.39 55.85 137.87 61.6 137.87 77.65C137.87 93.7 149.99 99.86 162.6 99.86C163.5 99.86 164.39 99.77 165.29 99.77V86.2H151.18V72.22H151.2V72.2Z" fill="white"/>
</svg>
