<svg width="38" height="44" viewBox="0 0 38 44" fill="none" xmlns="http://www.w3.org/2000/svg">
<path fill-rule="evenodd" clip-rule="evenodd" d="M25.1801 40.8562C29.2531 38.8876 32.721 35.7804 34.9109 31.7692C37.5728 26.8923 37.273 21.8138 37.273 16.3965V8.32051C24.2697 7.29026 18.8671 0.0236816 18.8671 0.0236816C18.8671 0.0236816 13.4644 7.29026 0.461188 8.32051V16.3965C0.461188 21.8138 0.162699 26.8923 2.82468 31.7692C5.01314 35.7804 8.4824 38.8876 12.5541 40.8562C14.5702 41.8302 16.6841 42.5339 18.863 43.0237C21.042 42.5339 23.164 41.8302 25.1801 40.8562Z" fill="#A594FF"/>
<path fill-rule="evenodd" clip-rule="evenodd" d="M18.7832 43.0237C20.9715 42.5339 23.1025 41.8302 25.1272 40.8562C29.2176 38.8876 32.7002 35.7804 34.8994 31.7692C37.5727 26.8923 37.2716 21.8138 37.2716 16.3965V8.32051C24.2129 7.29026 18.7873 0.0236816 18.7873 0.0236816L18.7832 43.0237Z" fill="#715CDE"/>
<ellipse cx="18.8676" cy="23.2603" rx="5.03756" ry="5.04423" fill="white"/>
</svg>
