<svg width="48" height="24" viewBox="0 0 48 24" fill="none" xmlns="http://www.w3.org/2000/svg">
<path fill-rule="evenodd" clip-rule="evenodd" d="M0.699219 23.5413H47.6992V0.555908H0.699219V23.5413Z" fill="#2EBBD1"/>
<path fill-rule="evenodd" clip-rule="evenodd" d="M31.2317 12.3917C31.2317 16.2758 28.0829 19.4246 24.1988 19.4246C20.3146 19.4246 17.166 16.2758 17.166 12.3917C17.166 8.50767 20.3146 5.35889 24.1988 5.35889C28.0829 5.35889 31.2317 8.50767 31.2317 12.3917Z" fill="#BBF2F0"/>
<path fill-rule="evenodd" clip-rule="evenodd" d="M26.1986 9.27428V10.3457H27.4577V11.3547H26.1616C26.0629 12.1022 25.7521 12.6672 25.2295 13.0489C24.7068 13.4311 23.9104 13.622 22.8407 13.622V14.4069C22.8407 15.2708 23.1945 15.7026 23.9024 15.7026C24.248 15.7026 24.5051 15.5947 24.6739 15.3785C24.8425 15.1627 24.9271 14.8388 24.9271 14.4069H26.5442C26.5113 15.2291 26.2767 15.8707 25.8406 16.3316C25.4043 16.7926 24.783 17.023 23.9764 17.023C23.0794 17.023 22.3942 16.7843 21.9209 16.3067C21.4476 15.8292 21.2111 15.1129 21.2111 14.1577V12.4759C22.1081 12.4759 22.779 12.449 23.2233 12.3949C23.6678 12.3411 23.9866 12.2352 24.1801 12.0773C24.3733 11.9196 24.495 11.6785 24.5443 11.3547H20.9395V10.3457H24.569V9.27428H20.9395V8.10327H27.4577V9.27428H26.1986Z" fill="#2EBBD1"/>
<path fill-rule="evenodd" clip-rule="evenodd" d="M4.47461 6.57099V18.3318C6.03738 18.3318 7.30816 19.5787 7.37071 21.1399H41.0477C41.1101 19.5844 42.372 18.3415 43.9272 18.3326V6.5702C42.3322 6.5609 41.0418 5.25465 41.0418 3.64355H7.3766C7.3766 5.26039 6.07739 6.57099 4.47461 6.57099Z" stroke="#452277" stroke-width="0.968"/>
<path fill-rule="evenodd" clip-rule="evenodd" d="M39.122 12.3915C39.122 13.6231 38.1237 14.6215 36.8921 14.6215C35.6606 14.6215 34.6621 13.6231 34.6621 12.3915C34.6621 11.16 35.6606 10.1616 36.8921 10.1616C38.1237 10.1616 39.122 11.16 39.122 12.3915Z" fill="#BBF2F0"/>
<path fill-rule="evenodd" clip-rule="evenodd" d="M13.3915 12.3915C13.3915 13.6231 12.3932 14.6215 11.1617 14.6215C9.93014 14.6215 8.93164 13.6231 8.93164 12.3915C8.93164 11.16 9.93014 10.1616 11.1617 10.1616C12.3932 10.1616 13.3915 11.16 13.3915 12.3915Z" fill="#BBF2F0"/>
</svg>
