<svg width="241" height="107" viewBox="0 0 241 107" fill="none" xmlns="http://www.w3.org/2000/svg">
<mask id="mask0_804_2355" style="mask-type:luminance" maskUnits="userSpaceOnUse" x="0" y="0" width="241" height="107">
<path d="M240.653 0H0.351562V107H240.653V0Z" fill="white"/>
</mask>
<g mask="url(#mask0_804_2355)">
<path d="M74.0253 80.6227H62.957V25.3483H74.0253V80.6198V80.6227Z" fill="#02174C"/>
<path d="M116.781 80.6242H106.467V61.4626C106.467 58.6616 105.825 56.4754 104.546 54.904C103.264 53.3327 101.496 52.5456 99.2446 52.5456C97.6641 52.5456 96.268 52.9337 95.0579 53.7069C93.8478 54.4805 92.9072 55.5734 92.2354 56.9864C91.5639 58.3993 91.228 60.0881 91.228 62.0527V80.6242H80.9141V42.9921H89.2504L89.6104 49.6736C90.903 47.5122 92.6298 45.867 94.786 44.7356C96.9422 43.6072 99.4343 43.0414 102.261 43.0414C106.766 43.0414 110.31 44.4595 112.898 47.2961C115.486 50.1326 116.779 54.0214 116.779 58.9593V80.6268L116.781 80.6242Z" fill="#02174C"/>
<path d="M162.502 80.6224H153.446L152.907 75.6106C151.375 77.3787 149.536 78.7807 147.39 79.8108C145.245 80.8437 142.905 81.3576 140.365 81.3576C137.081 81.3576 134.153 80.5295 131.578 78.8707C129.004 77.212 126.972 74.9329 125.486 72.0363C123.999 69.1369 123.258 65.8577 123.258 62.1986C123.258 58.5394 124.001 55.2274 125.486 52.3418C126.97 49.4559 129.001 47.1823 131.578 45.5235C134.153 43.8648 137.081 43.037 140.365 43.037C142.713 43.037 144.898 43.4741 146.924 44.3458C148.949 45.2177 150.703 46.4281 152.188 47.9749V25.3508H162.502V80.6224ZM143.025 71.8889C144.725 71.8889 146.265 71.4953 147.643 70.7082C149.022 69.9211 150.122 68.8472 150.951 67.4836C151.777 66.12 152.191 64.5677 152.191 62.8215V61.4963C152.191 59.7527 151.777 58.2033 150.951 56.8533C150.125 55.5035 149.022 54.4406 147.643 53.667C146.265 52.8937 144.725 52.5057 143.025 52.5057C141.324 52.5057 139.706 52.9238 138.318 53.7573C136.93 54.5935 135.832 55.7413 135.03 57.2032C134.227 58.6652 133.824 60.3295 133.824 62.1957C133.824 64.0622 134.224 65.691 135.03 67.1529C135.832 68.6149 136.927 69.7682 138.318 70.6179C139.706 71.4653 141.277 71.8889 143.025 71.8889Z" fill="#02174C"/>
<path d="M205.265 80.6232H196.89L196.531 74.7259C195.26 76.8876 193.578 78.5354 191.48 79.6638C189.383 80.7925 186.934 81.3583 184.13 81.3583C179.53 81.3583 175.924 79.9099 173.312 77.0105C170.7 74.111 169.395 70.1322 169.395 65.0714V42.9884H179.708V62.6391C179.708 65.514 180.373 67.7686 181.702 69.3999C183.032 71.0341 184.847 71.851 187.147 71.851C189.447 71.851 191.441 70.9986 192.842 69.2906C194.244 67.5825 194.945 65.2681 194.945 62.3439V42.9884H205.26V80.6203L205.265 80.6232Z" fill="#02174C"/>
<path d="M211.297 77.4534L213.562 68.4628C214.282 69.2744 215.244 70.0231 216.456 70.7116C217.666 71.4003 218.972 71.9468 220.374 72.3513C221.776 72.7558 223.098 72.9607 224.345 72.9607C225.83 72.9607 226.991 72.671 227.831 72.0945C228.67 71.5177 229.089 70.7364 229.089 69.7551C229.089 68.9435 228.806 68.2631 228.244 67.7111C227.682 67.1592 226.928 66.6672 225.979 66.2382C225.032 65.8092 223.985 65.3856 222.834 64.9675C221.277 64.3527 219.679 63.6423 218.037 62.8306C216.395 62.019 215.012 60.9151 213.888 59.5131C212.76 58.114 212.198 56.2585 212.198 53.9494C212.198 51.64 212.76 49.8176 213.888 48.1831C215.012 46.5492 216.606 45.284 218.666 44.3875C220.726 43.4913 223.122 43.0432 225.854 43.0432C230.286 43.0432 234.707 44.1852 239.115 46.4698L236.205 54.8346C235.437 54.2198 234.481 53.6487 233.329 53.1213C232.18 52.5939 231 52.1703 229.79 51.8506C228.581 51.5309 227.496 51.3722 226.538 51.3722C225.364 51.3722 224.449 51.6183 223.788 52.11C223.13 52.602 222.8 53.2771 222.8 54.1378C222.8 54.7772 223.026 55.3485 223.481 55.8511C223.937 56.354 224.614 56.835 225.512 57.2886C226.411 57.7421 227.52 58.2286 228.836 58.7453C230.465 59.3599 232.111 60.0896 233.777 60.9367C235.443 61.7839 236.845 62.9152 237.983 64.3281C239.12 65.7408 239.691 67.6128 239.691 69.9467C239.691 72.2803 239.086 74.2342 237.876 75.953C236.666 77.6718 234.965 79.0054 232.772 79.9509C230.578 80.8964 228.01 81.3693 225.065 81.3693C220.153 81.3693 215.566 80.0683 211.3 77.4641L211.297 77.4534Z" fill="#02174C"/>
<path d="M157.47 101.464H154.602L159.91 87.8118H162.797L168.098 101.464H165.23L164.138 98.5321H158.562L157.47 101.464ZM159.457 96.0753H163.248L161.347 91.0145L159.457 96.0753Z" fill="#02174C"/>
<path d="M172.665 106.016H170.109V92.3629H172.346L172.479 93.6008C172.857 93.1581 173.311 92.811 173.841 92.5597C174.372 92.3084 174.95 92.1826 175.576 92.1826C176.392 92.1826 177.116 92.3875 177.75 92.7975C178.385 93.2075 178.884 93.7675 179.251 94.4808C179.619 95.194 179.8 96.0056 179.8 96.9157C179.8 97.8257 179.616 98.6287 179.251 99.3453C178.884 100.061 178.385 100.624 177.75 101.034C177.116 101.443 176.392 101.648 175.576 101.648C174.995 101.648 174.459 101.539 173.964 101.326C173.471 101.11 173.036 100.812 172.663 100.43V106.019L172.665 106.016ZM174.928 99.2984C175.373 99.2984 175.763 99.1971 176.101 98.992C176.439 98.7879 176.703 98.5061 176.895 98.1454C177.087 97.7847 177.182 97.3721 177.182 96.9128C177.182 96.4537 177.087 96.0331 176.895 95.675C176.703 95.3169 176.437 95.0356 176.101 94.8279C175.766 94.6201 175.376 94.5191 174.939 94.5191C174.526 94.5191 174.152 94.612 173.819 94.7979C173.489 94.9837 173.22 95.2405 173.017 95.5656C172.812 95.8937 172.695 96.2708 172.665 96.6944V97.1505C172.695 97.5631 172.809 97.9322 173.012 98.2579C173.214 98.5828 173.478 98.837 173.812 99.0225C174.142 99.2081 174.515 99.3012 174.931 99.3012L174.928 99.2984Z" fill="#02174C"/>
<path d="M184.703 106.017H182.148V92.3642H184.384L184.517 93.602C184.896 93.1594 185.349 92.8123 185.879 92.5609C186.41 92.3094 186.988 92.1838 187.614 92.1838C188.43 92.1838 189.155 92.3887 189.789 92.7987C190.423 93.2087 190.922 93.7687 191.289 94.482C191.657 95.1952 191.838 96.0069 191.838 96.9169C191.838 97.8269 191.654 98.6299 191.289 99.3466C190.922 100.062 190.423 100.625 189.789 101.035C189.155 101.444 188.43 101.65 187.614 101.65C187.033 101.65 186.498 101.541 186.002 101.328C185.509 101.112 185.074 100.813 184.701 100.431V106.02L184.703 106.017ZM186.967 99.2996C187.411 99.2996 187.801 99.1983 188.139 98.9932C188.478 98.7891 188.742 98.5073 188.933 98.1466C189.125 97.7857 189.221 97.3733 189.221 96.914C189.221 96.455 189.125 96.0343 188.933 95.6762C188.742 95.3182 188.475 95.0366 188.139 94.8291C187.804 94.6213 187.414 94.5204 186.977 94.5204C186.564 94.5204 186.191 94.613 185.858 94.7988C185.527 94.9849 185.258 95.2417 185.056 95.5669C184.85 95.8946 184.733 96.272 184.703 96.6956V97.1518C184.733 97.5644 184.847 97.9334 185.05 98.2591C185.253 98.584 185.516 98.8382 185.85 99.0237C186.18 99.2093 186.553 99.3025 186.969 99.3025L186.967 99.2996Z" fill="#02174C"/>
<path d="M193.558 100.684L194.118 98.462C194.295 98.6621 194.533 98.8477 194.832 99.0165C195.13 99.1864 195.453 99.3229 195.799 99.421C196.145 99.522 196.474 99.5721 196.78 99.5721C197.148 99.5721 197.433 99.5006 197.641 99.3581C197.848 99.217 197.953 99.0225 197.953 98.7819C197.953 98.5828 197.883 98.4129 197.745 98.2764C197.606 98.1399 197.419 98.0196 197.185 97.9131C196.95 97.8064 196.692 97.7028 196.407 97.5989C196.023 97.4486 195.625 97.2709 195.22 97.0715C194.815 96.8718 194.475 96.5986 194.195 96.2515C193.915 95.9047 193.777 95.4482 193.777 94.8772C193.777 94.3059 193.915 93.8549 194.195 93.4533C194.472 93.0488 194.866 92.7375 195.375 92.5159C195.885 92.2946 196.476 92.1826 197.151 92.1826C198.246 92.1826 199.336 92.4639 200.426 93.0297L199.706 95.0956C199.517 94.9427 199.28 94.8033 198.997 94.6721C198.712 94.5411 198.422 94.4372 198.123 94.3578C197.824 94.2785 197.555 94.2401 197.321 94.2401C197.031 94.2401 196.804 94.3004 196.641 94.4234C196.478 94.5437 196.396 94.7102 196.396 94.9234C196.396 95.0821 196.452 95.2214 196.564 95.3472C196.676 95.4727 196.844 95.5902 197.065 95.7024C197.286 95.8144 197.561 95.9347 197.886 96.0602C198.288 96.2134 198.696 96.3937 199.106 96.6015C199.517 96.8089 199.864 97.0905 200.146 97.4376C200.429 97.7847 200.567 98.249 200.567 98.8263C200.567 99.4025 200.418 99.8864 200.119 100.309C199.821 100.733 199.399 101.064 198.859 101.296C198.318 101.529 197.684 101.645 196.956 101.645C195.743 101.645 194.608 101.324 193.555 100.682L193.558 100.684Z" fill="#02174C"/>
<path d="M208.963 101.226C208.283 101.505 207.622 101.645 206.982 101.645C206.343 101.645 205.735 101.499 205.228 101.213C204.723 100.926 204.328 100.522 204.043 100.002C203.758 99.4831 203.616 98.8844 203.616 98.2041V94.6898H202.062V92.3587H203.749V90.0825H206.165V92.3587H208.624V94.6898H206.165V97.7312C206.165 98.2286 206.298 98.6164 206.564 98.8931C206.83 99.1689 207.161 99.3054 207.558 99.3054C207.918 99.3054 208.273 99.1906 208.614 98.958L208.96 101.224L208.963 101.226Z" fill="#02174C"/>
<path d="M215.39 101.649C214.478 101.649 213.663 101.444 212.941 101.034C212.219 100.624 211.653 100.064 211.241 99.3505C210.83 98.637 210.625 97.8256 210.625 96.9156C210.625 96.0056 210.83 95.2023 211.241 94.489C211.651 93.7758 212.219 93.2129 212.941 92.8003C213.663 92.3877 214.478 92.1799 215.39 92.1799C216.301 92.1799 217.114 92.3877 217.826 92.8003C218.538 93.2129 219.1 93.7758 219.513 94.489C219.923 95.2023 220.129 96.0113 220.129 96.9156C220.129 97.8204 219.923 98.637 219.513 99.3505C219.103 100.064 218.541 100.624 217.826 101.034C217.112 101.444 216.301 101.649 215.39 101.649ZM215.382 99.3093C215.79 99.3093 216.155 99.2054 216.477 98.9953C216.8 98.7852 217.056 98.5005 217.24 98.1401C217.426 97.7792 217.519 97.3666 217.519 96.9075C217.519 96.4485 217.426 96.0468 217.24 95.6887C217.053 95.3307 216.8 95.0465 216.477 94.839C216.155 94.6313 215.79 94.5245 215.382 94.5245C214.974 94.5245 214.598 94.6284 214.277 94.839C213.954 95.0494 213.7 95.3336 213.513 95.6887C213.328 96.0468 213.234 96.4539 213.234 96.9075C213.234 97.3611 213.328 97.7792 213.513 98.1401C213.7 98.5005 213.954 98.7852 214.277 98.9953C214.598 99.2054 214.967 99.3093 215.382 99.3093Z" fill="#02174C"/>
<path d="M225.008 101.466H222.461V92.3631H224.681L224.769 93.9371C225.065 93.3851 225.467 92.9532 225.976 92.6445C226.485 92.3357 227.069 92.1799 227.725 92.1799C227.914 92.1799 228.105 92.1938 228.297 92.2209C228.489 92.2483 228.687 92.2893 228.887 92.3438L228.567 94.6913C228.174 94.5765 227.807 94.5191 227.457 94.5191C226.967 94.5191 226.535 94.6339 226.165 94.8607C225.794 95.0875 225.51 95.4045 225.31 95.8062C225.107 96.2107 225.008 96.6807 225.008 97.2217V101.463V101.466Z" fill="#02174C"/>
<path d="M238.967 100.446C237.866 101.247 236.661 101.649 235.353 101.649C234.383 101.649 233.512 101.436 232.738 101.007C231.965 100.578 231.357 99.9985 230.91 99.2633C230.462 98.5279 230.238 97.7001 230.238 96.7791C230.238 95.8581 230.441 95.112 230.846 94.4207C231.251 93.7293 231.803 93.1829 232.502 92.7812C233.199 92.3796 233.994 92.1799 234.882 92.1799C235.769 92.1799 236.606 92.3986 237.304 92.8384C238.002 93.2784 238.545 93.8906 238.937 94.6777C239.33 95.4646 239.524 96.372 239.524 97.4049V97.6972H232.981C233.087 98.0553 233.261 98.37 233.501 98.6399C233.74 98.9108 234.042 99.1237 234.407 99.2819C234.772 99.4408 235.185 99.5204 235.654 99.5204C236.56 99.5204 237.402 99.219 238.184 98.6182L238.964 100.449L238.967 100.446ZM232.869 96.3691H237.174C237.125 95.9756 237.005 95.6259 236.814 95.3281C236.621 95.0274 236.371 94.7923 236.059 94.6229C235.747 94.4536 235.401 94.3687 235.015 94.3687C234.628 94.3687 234.277 94.4562 233.972 94.6339C233.669 94.8116 233.421 95.0465 233.231 95.3445C233.042 95.6423 232.92 95.9839 232.866 96.372L232.869 96.3691Z" fill="#02174C"/>
<path d="M42.6765 21.7004C42.6765 33.6833 33.2018 43.4008 21.5127 43.4008C9.82342 43.4008 0.351562 33.6833 0.351562 21.7004C0.351562 9.71748 9.82608 0 21.5153 0C33.2047 0 42.6765 9.71476 42.6765 21.7004ZM41.3572 61.9694V42.9743L21.5153 58.2884L1.6708 42.9717V61.9668L21.5127 77.2809L41.3546 61.9668L41.3572 61.9694ZM41.3572 91.3952V72.4001L21.5153 87.7142L1.6708 72.4001V91.3952L21.5127 106.71L41.3572 91.3952Z" fill="url(#paint0_linear_804_2355)"/>
</g>
<defs>
<linearGradient id="paint0_linear_804_2355" x1="21.5153" y1="12.2726" x2="21.5153" y2="78.6935" gradientUnits="userSpaceOnUse">
<stop stop-color="#FDAB04"/>
<stop offset="0.67" stop-color="#FD6B00"/>
<stop offset="1" stop-color="#DC007B"/>
</linearGradient>
</defs>
</svg>
