<svg width="233" height="239" viewBox="0 0 233 239" fill="none" xmlns="http://www.w3.org/2000/svg">
<path d="M155.21 0H1C17.45 21.4 27.24 48.15 27.24 77.21C27.24 106.27 17.45 133.01 1 154.41H155.21C197.94 154.41 232.58 119.85 232.58 77.2C232.58 34.55 197.94 0 155.21 0Z" fill="#6818A4"/>
<path d="M114.17 65.96C114.17 82.12 102.04 90.53 86.66 90.53H75.03V113.81H58.64V41.47H86.64C102.06 41.49 114.17 49.72 114.17 65.96ZM85.67 75.68C92.12 75.68 97.29 72.91 97.29 65.96C97.29 59.01 92.12 56.45 85.67 56.45H75.03V75.68H85.67Z" fill="white"/>
<path d="M152.2 72.2H181.69V106.28C181.69 108.76 180.89 110.64 178.41 111.83C174.64 113.51 169.87 114.81 162.01 114.81C137.88 114.81 121.11 99.04 121.11 77.64C121.11 56.24 137.3 40.49 160.63 40.49C169.66 40.49 176.23 42.28 180.69 44.25V60.41C175.82 57.43 168.86 55.85 162.11 55.85C150.39 55.85 138.87 61.6 138.87 77.65C138.87 93.7 150.99 99.86 163.6 99.86C164.5 99.86 165.39 99.77 166.29 99.77V86.2H152.18V72.22H152.2V72.2Z" fill="white"/>
<path d="M21.5729 176.278C31.6402 176.278 39.4849 181.508 39.4849 191.902C39.4849 202.166 31.6402 207.526 21.5729 207.526H13.5321V224H4.77218V176.278H21.5729ZM13.5321 199.616H21.1152C26.345 199.616 30.4635 197.393 30.4635 191.902C30.4635 186.411 26.345 184.254 21.1152 184.254H13.5321V199.616ZM57.4484 188.895C64.9663 188.895 71.6342 191.968 71.6342 201.708V224H63.8549V221.712C61.3708 223.412 58.3637 224.654 54.8335 224.654C47.8387 224.654 43.7856 220.666 43.7856 214.063C43.7856 207.199 49.2769 203.212 57.0562 203.212H63.3973V202.231C63.3973 198.047 60.5209 196.151 55.8795 196.151C51.7611 196.151 48.1656 197.59 45.6161 198.962V191.445C48.5578 189.876 52.9378 188.895 57.4484 188.895ZM51.8264 213.933C51.8264 216.94 54.1798 218.443 57.3177 218.443C59.5404 218.443 61.763 217.79 63.3973 216.809V209.095H58.429C54.5721 209.095 51.8264 210.533 51.8264 213.933ZM97.1049 188.895C98.9353 188.895 100.766 189.287 102.073 189.941V197.59C99.9813 196.674 98.1509 196.348 96.3858 196.348C92.9864 196.348 90.2408 197.655 87.8874 199.551V224H79.6505V189.549H87.2991V193.275C89.914 190.595 93.3787 188.895 97.1049 188.895ZM128.149 189.549V196.413H118.604V212.56C118.604 215.436 120.042 217.397 123.703 217.397C124.945 217.397 126.384 217.201 128.149 216.744V223.935C126.449 224.392 124.749 224.654 123.246 224.654C114.028 224.654 110.367 219.751 110.367 213.214V196.413H104.026V189.549H110.367V180.92H118.604V189.549H128.149ZM153.368 188.96C160.363 188.96 165.135 193.471 165.135 201.839V224H156.898V202.493C156.898 198.178 154.349 196.217 151.145 196.217C148.073 196.217 145.393 197.786 143.301 199.551V224H135.064V189.549H142.712V193.144C145.458 190.66 149.25 188.96 153.368 188.96ZM202.393 203.996C202.393 206.48 200.955 207.788 198.732 207.788H178.924C179.382 214.717 184.416 217.594 190.495 217.594C194.418 217.594 197.752 216.548 199.713 215.698V222.889C197.425 223.739 194.091 224.654 189.711 224.654C179.709 224.654 171.08 218.77 171.08 206.415C171.08 194.517 179.382 188.895 187.554 188.895C195.529 188.895 202.393 194.256 202.393 203.996ZM187.423 195.236C183.37 195.236 180.363 197.786 179.317 202.427H194.875C194.548 197.851 191.345 195.236 187.423 195.236ZM226.636 188.895C228.467 188.895 230.297 189.287 231.605 189.941V197.59C229.513 196.674 227.682 196.348 225.917 196.348C222.518 196.348 219.772 197.655 217.419 199.551V224H209.182V189.549H216.831V193.275C219.446 190.595 222.91 188.895 226.636 188.895Z" fill="black"/>
</svg>
