<svg width="36" height="35" viewBox="0 0 36 35" fill="none" xmlns="http://www.w3.org/2000/svg">
<path d="M19.8568 27.3396L17.3598 29.7006C15.7043 31.266 13.4946 32.1097 11.217 32.0459C8.93943 31.9822 6.78043 31.0163 5.21499 29.3607C3.64955 27.7052 2.80591 25.4955 2.86964 23.2179C2.93337 20.9403 3.89927 18.7814 5.55484 17.2159L8.05177 14.8549M15.5426 7.77193L18.0395 5.41093C19.6951 3.84549 21.9047 3.00184 24.1823 3.06558C26.4599 3.12931 28.6189 4.0952 30.1843 5.75078C31.7498 7.40635 32.5934 9.61598 32.5297 11.8936C32.466 14.1712 31.5001 16.3302 29.8445 17.8956L27.3476 20.2566M12.7058 22.2778L22.6935 12.8338" stroke="url(#paint0_linear_6440_2683)" stroke-width="5" stroke-linecap="round" stroke-linejoin="round"/>
<defs>
<linearGradient id="paint0_linear_6440_2683" x1="15.3133" y1="9.05705" x2="15.3133" y2="31.9151" gradientUnits="userSpaceOnUse">
<stop stop-color="#A594FF"/>
<stop offset="1" stop-color="#40C1D3"/>
</linearGradient>
</defs>
</svg>
